# xmcd
# 
# Track frame offsets:
#     150
#     17162
#     34210
#     55145
#     70495
#     109667
#     126177
#     144447
#     163125
#     178002
#     196220
#     215830
#     235595
#     276080
#     291855
#     311367
#     333465
# 
# Disc length: 4720
# 
# Revision: 2
# Processed by: cddbd v1.5.2PL0 Copyright (c) Steve Scherf et al.
# Submitted via: fre:ac v1.0.17
# 
DISCID=03126e11
DTITLE=V/A - Arkology 2/3
DYEAR=0
DGENRE=
TTITLE0=Lee Perry - Dreadlocks In Moonlight
TTITLE1=Mikey Dread - Dread At The Mantrols
TTITLE2=Errol Walker - In These Times
TTITLE3=The Upsetters - In These Times Dub
TTITLE4=Max Romeo and The Upsetters - Norman
TTITLE5=Junior Murvin - Police And Thieves
TTITLE6=Glen DaCosta - Magic Touch
TTITLE7=Jah Lion - Soldier And Police War
TTITLE8=The Upsetters - Grumblin' Dub
TTITLE9=Junior Murvin - Bad Weed
TTITLE10=Errol Walker - John Public
TTITLE11=Errol Walker and Enos Barnes - John Public (Version)
TTITLE12=Junior Murvin and Dillinger - Roots Train
TTITLE13=The Meditations - No Peace
TTITLE14=The Upsetters - No Peace Dub
TTITLE15=Raphael Green and Dr. Alimantado - Rasta Train
TTITLE16=The Upsetters - Party Time (Part 2)
EXTD=
EXTT0=
EXTT1=
EXTT2=
EXTT3=
EXTT4=
EXTT5=
EXTT6=
EXTT7=
EXTT8=
EXTT9=
EXTT10=
EXTT11=
EXTT12=
EXTT13=
EXTT14=
EXTT15=
EXTT16=
PLAYORDER=
